<svg xmlns="http://www.w3.org/2000/svg" width="0" height="0" viewBox="0 0 390 844">
  <defs>
    <symbol id="tk-overlay-hitarea-44" viewBox="0 0 44 44">
      <rect x="1" y="1" width="42" height="42" rx="12" fill="rgba(10,132,255,0.14)"/>
      <rect x="1" y="1" width="42" height="42" rx="12" fill="none" stroke="rgba(10,132,255,0.55)" stroke-width="2"/>
      <path d="M14 22h16" stroke="rgba(255,255,255,0.65)" stroke-width="2" stroke-linecap="round"/>
      <path d="M22 14v16" stroke="rgba(255,255,255,0.65)" stroke-width="2" stroke-linecap="round"/>
      <text x="22" y="40" text-anchor="middle" font-family="-apple-system, BlinkMacSystemFont, 'SF Pro Text', Arial" font-size="9" font-weight="700" fill="rgba(255,255,255,0.7)">44pt</text>
    </symbol>

    <symbol id="tk-overlay-focus-ring" viewBox="0 0 120 64">
      <rect x="4" y="4" width="112" height="56" rx="18" fill="none" stroke="rgba(10,132,255,0.85)" stroke-width="3"/>
      <rect x="1" y="1" width="118" height="62" rx="20" fill="none" stroke="rgba(255,255,255,0.18)" stroke-width="2"/>
    </symbol>

    <symbol id="tk-overlay-safe-area" viewBox="0 0 390 844">
      <rect x="0" y="0" width="390" height="44" fill="rgba(255,149,0,0.16)"/>
      <rect x="0" y="44" width="390" height="800" fill="rgba(255,255,255,0.02)"/>
      <rect x="0" y="810" width="390" height="34" fill="rgba(255,149,0,0.16)"/>
      <text x="195" y="28" text-anchor="middle" font-family="-apple-system, BlinkMacSystemFont, 'SF Pro Text', Arial" font-size="12" font-weight="700" fill="rgba(255,255,255,0.75)">Top Safe Area</text>
      <text x="195" y="832" text-anchor="middle" font-family="-apple-system, BlinkMacSystemFont, 'SF Pro Text', Arial" font-size="12" font-weight="700" fill="rgba(255,255,255,0.75)">Bottom Safe Area</text>
    </symbol>

    <symbol id="tk-overlay-network" viewBox="0 0 320 92">
      <rect x="0" y="0" width="320" height="92" rx="20" fill="rgba(20,20,20,0.78)"/>
      <rect x="0.5" y="0.5" width="319" height="91" rx="19.5" fill="none" stroke="rgba(255,255,255,0.12)"/>
      <g transform="translate(18,18)">
        <circle cx="12" cy="12" r="10" fill="#FF453A"/>
        <path d="M8 8l8 8M16 8l-8 8" stroke="rgba(0,0,0,0.55)" stroke-width="2.5" stroke-linecap="round"/>
      </g>
      <text x="56" y="36" font-family="-apple-system, BlinkMacSystemFont, 'SF Pro Text', Arial" font-size="14" font-weight="700" fill="rgba(255,255,255,0.92)">网络断开</text>
      <text x="56" y="58" font-family="-apple-system, BlinkMacSystemFont, 'SF Pro Text', Arial" font-size="12" font-weight="600" fill="rgba(255,255,255,0.55)">应展示重连按钮与状态回滚提示</text>
    </symbol>
  </defs>
</svg>

