<svg xmlns="http://www.w3.org/2000/svg" width="0" height="0" viewBox="0 0 24 24">
  <defs>
    <linearGradient id="tk-gradient-primary" x1="0" y1="0" x2="1" y2="1">
      <stop offset="0" stop-color="#0A84FF"/>
      <stop offset="1" stop-color="#64D2FF"/>
    </linearGradient>

    <symbol id="tk-icon-play" viewBox="0 0 24 24">
      <path d="M9 7.5v9l8-4.5-8-4.5Z" fill="currentColor"/>
    </symbol>

    <symbol id="tk-icon-ready" viewBox="0 0 24 24">
      <path d="M9.2 16.6 4.9 12.3l1.4-1.4 2.9 2.9 8.5-8.5 1.4 1.4-9.9 9.9Z" fill="currentColor"/>
    </symbol>

    <symbol id="tk-icon-leave" viewBox="0 0 24 24">
      <path d="M10 7V5a2 2 0 0 1 2-2h7v18h-7a2 2 0 0 1-2-2v-2h2v2h5V5h-5v2h-2Z" fill="currentColor"/>
      <path d="M3 12l5-4v3h7v2H8v3l-5-4Z" fill="currentColor"/>
    </symbol>

    <symbol id="tk-icon-chat" viewBox="0 0 24 24">
      <path d="M4 4h16a2 2 0 0 1 2 2v9a2 2 0 0 1-2 2H9l-5 4v-4H4a2 2 0 0 1-2-2V6a2 2 0 0 1 2-2Z" fill="currentColor"/>
    </symbol>

    <symbol id="tk-icon-voice" viewBox="0 0 24 24">
      <path d="M12 14a3 3 0 0 0 3-3V6a3 3 0 0 0-6 0v5a3 3 0 0 0 3 3Z" fill="currentColor"/>
      <path d="M19 11a1 1 0 1 0-2 0 5 5 0 0 1-10 0 1 1 0 1 0-2 0 7 7 0 0 0 6 6.93V20H9a1 1 0 1 0 0 2h6a1 1 0 1 0 0-2h-2v-2.07A7 7 0 0 0 19 11Z" fill="currentColor"/>
    </symbol>

    <symbol id="tk-icon-mute" viewBox="0 0 24 24">
      <path d="M11 5 7 9H4v6h3l4 4V5Z" fill="currentColor"/>
      <path d="M16.2 8.3a1 1 0 0 1 1.4 0L19 9.7l1.4-1.4a1 1 0 1 1 1.4 1.4L20.4 11l1.4 1.4a1 1 0 0 1-1.4 1.4L19 12.4l-1.4 1.4a1 1 0 0 1-1.4-1.4l1.4-1.4-1.4-1.4a1 1 0 0 1 0-1.4Z" fill="currentColor"/>
    </symbol>

    <symbol id="tk-icon-error" viewBox="0 0 24 24">
      <path d="M12 2a10 10 0 1 0 0 20 10 10 0 0 0 0-20Zm1 13a1 1 0 1 1-2 0 1 1 0 0 1 2 0Zm0-9v7h-2V6h2Z" fill="currentColor"/>
    </symbol>

    <symbol id="tk-icon-reconnect" viewBox="0 0 24 24">
      <path d="M12 6a6 6 0 0 1 5.7 4H20l-3 3-3-3h1.7A4 4 0 1 0 16 14h2a6 6 0 1 1-6-8Z" fill="currentColor"/>
    </symbol>

    <symbol id="tk-icon-loading" viewBox="0 0 24 24">
      <path d="M12 4a8 8 0 0 1 7.46 5.1 1 1 0 1 1-1.86.74A6 6 0 1 0 18 12a1 1 0 1 1 2 0 8 8 0 1 1-8-8Z" fill="currentColor"/>
    </symbol>
  </defs>
</svg>

