<?xml version="1.0" encoding="UTF-8"?>
<svg xmlns="http://www.w3.org/2000/svg" viewBox="0 0 1200 600" width="512" height="512" role="img" aria-label="默认封面">
<title>默认封面</title>
<defs>
    <linearGradient id="bg" x1="0" y1="0" x2="1" y2="1">
      <stop offset="0" stop-color="#0f172a"/>
      <stop offset="1" stop-color="#1d4ed8"/>
    </linearGradient>
    <radialGradient id="glow" cx="30%" cy="30%" r="70%">
      <stop offset="0" stop-color="#93c5fd" stop-opacity="0.55"/>
      <stop offset="1" stop-color="#0b1220" stop-opacity="0"/>
    </radialGradient>
  </defs>
  <rect width="1200" height="600" fill="url(#bg)"/>
  <rect width="1200" height="600" fill="url(#glow)"/>
  <g opacity="0.22" fill="none" stroke="#ffffff">
    <path d="M-80 460C180 320 420 560 720 420s520-20 640 60" stroke-width="3"/>
    <path d="M-60 520C220 360 420 640 760 480s520-40 640 40" stroke-width="2"/>
    <path d="M-40 580C220 420 440 700 800 520s520-60 640 20" stroke-width="2"/>
  </g>
  <g opacity="0.16" fill="#ffffff">
    <circle cx="140" cy="130" r="6"/>
    <circle cx="320" cy="180" r="4"/>
    <circle cx="520" cy="110" r="8"/>
    <circle cx="980" cy="160" r="5"/>
    <circle cx="1080" cy="260" r="4"/>
  </g>
</svg>
